<svg xmlns="http://www.w3.org/2000/svg" xmlns:xlink="http://www.w3.org/1999/xlink" width="2000" zoomAndPan="magnify" viewBox="0 0 1500 1499.999933" height="2000" preserveAspectRatio="xMidYMid meet" version="1.0"><defs><clipPath id="f4cffdb1fb"><path d="M 104.945312 12.414062 L 1394.945312 12.414062 L 1394.945312 1487.664062 L 104.945312 1487.664062 Z M 104.945312 12.414062 " clip-rule="nonzero"/></clipPath><clipPath id="37da390482"><path d="M 675 1250 L 825 1250 L 825 1487.664062 L 675 1487.664062 Z M 675 1250 " clip-rule="nonzero"/></clipPath></defs><rect x="-150" width="1800" fill="#ffffff" y="-149.999993" height="1799.99992" fill-opacity="1"/><rect x="-150" width="1800" fill="#ffffff" y="-149.999993" height="1799.99992" fill-opacity="1"/><g clip-path="url(#f4cffdb1fb)"><path fill="#1a1a1a" d="M 1069.621094 12.644531 L 1069.621094 560.628906 L 430.792969 560.628906 L 430.792969 12.644531 L 104.945312 12.644531 L 104.945312 1487.347656 L 430.792969 1487.347656 L 430.792969 1044.726562 L 750.207031 856.8125 L 1069.621094 1044.726562 L 1069.621094 1487.347656 L 1395.464844 1487.347656 L 1395.464844 12.644531 Z M 1069.621094 12.644531 " fill-opacity="1" fill-rule="nonzero"/></g><g clip-path="url(#37da390482)"><path fill="#1a1a1a" d="M 675.953125 1250.066406 L 824.460938 1250.066406 L 824.460938 1487.347656 L 675.953125 1487.347656 Z M 675.953125 1250.066406 " fill-opacity="1" fill-rule="nonzero"/></g></svg>